<?xml version="1.0" standalone="no"?>
<!DOCTYPE svg PUBLIC "-//W3C//DTD SVG 20010904//EN"
 "http://www.w3.org/TR/2001/REC-SVG-20010904/DTD/svg10.dtd">
<svg version="1.0" xmlns="http://www.w3.org/2000/svg"
 width="920.000000pt" height="512.000000pt" viewBox="0 0 920.000000 512.000000"
 preserveAspectRatio="xMidYMid meet">
<metadata>
Created by potrace 1.16, written by Peter Selinger 2001-2019
</metadata>
<g transform="translate(0.000000,512.000000) scale(0.100000,-0.100000)"
fill="#000000" stroke="none">
<path d="M4490 5110 c-142 -23 -270 -90 -382 -202 -61 -61 -86 -96 -123 -170
-25 -51 -51 -122 -59 -158 l-13 -65 -449 -6 c-496 -6 -492 -6 -624 -75 -90
-47 -150 -102 -208 -187 -72 -109 -97 -195 -97 -337 1 -90 5 -130 22 -185 46
-145 151 -274 281 -343 l62 -33 0 -1413 c0 -1374 1 -1415 20 -1490 51 -202
197 -356 395 -419 l70 -22 1215 0 c1151 0 1218 1 1275 18 97 30 175 77 250
152 82 81 127 160 155 271 19 75 20 116 20 1490 l0 1413 62 33 c130 69 235
198 281 343 32 104 31 272 -2 374 -48 144 -158 274 -290 341 -125 63 -125 63
-615 69 l-449 6 -13 65 c-17 85 -91 231 -149 298 -128 145 -301 228 -490 237
-49 2 -115 0 -145 -5z m280 -306 c36 -17 86 -50 111 -72 44 -39 102 -133 119
-192 l9 -30 -410 0 -409 0 19 50 c42 111 105 185 196 233 74 38 117 47 210 44
76 -2 100 -7 155 -33z m1388 -586 c100 -24 184 -102 218 -201 24 -69 16 -198
-14 -257 -30 -56 -86 -116 -133 -140 -77 -40 -112 -41 -1674 -38 l-1510 3 -51
23 c-60 27 -123 89 -156 152 -31 60 -37 186 -13 259 30 90 124 179 211 200 61
14 3064 14 3122 -1z m-138 -2306 l0 -1399 -30 -61 c-33 -65 -76 -109 -143
-144 l-42 -23 -1205 0 -1205 0 -53 29 c-60 33 -101 76 -134 139 l-23 42 -3
1408 -2 1407 1420 0 1420 0 0 -1398z"/>
<path d="M3791 2452 c-19 -10 -43 -34 -53 -53 -17 -32 -18 -78 -18 -849 0
-790 1 -816 20 -847 39 -65 107 -86 173 -54 83 40 77 -25 77 903 0 808 0 824
-20 856 -36 58 -116 78 -179 44z"/>
<path d="M4529 2447 c-73 -48 -69 1 -69 -895 0 -721 2 -808 16 -838 50 -105
198 -105 248 0 14 30 16 117 16 838 0 745 -1 806 -18 838 -23 46 -75 80 -122
80 -22 0 -51 -9 -71 -23z"/>
<path d="M5283 2455 c-18 -8 -42 -29 -53 -47 -20 -32 -20 -48 -20 -856 0 -928
-6 -863 77 -903 66 -32 134 -11 173 54 19 31 20 57 20 847 0 771 -1 817 -18
849 -34 62 -110 86 -179 56z"/>
</g>
</svg>
