<?xml version="1.0" standalone="no"?>
<!DOCTYPE svg PUBLIC "-//W3C//DTD SVG 20010904//EN"
 "http://www.w3.org/TR/2001/REC-SVG-20010904/DTD/svg10.dtd">
<svg version="1.0" xmlns="http://www.w3.org/2000/svg"
 width="334.000000pt" height="276.000000pt" viewBox="0 0 334.000000 276.000000"
 preserveAspectRatio="xMidYMid meet">
<metadata>
Created by potrace 1.16, written by Peter Selinger 2001-2019
</metadata>
<g transform="translate(0.000000,276.000000) scale(0.100000,-0.100000)"
fill="#000000" stroke="none">
<path d="M47 2714 c-3 -3 6 -32 20 -63 14 -31 62 -139 108 -241 126 -283 302
-675 345 -770 52 -115 623 -1387 663 -1475 17 -38 34 -74 37 -78 4 -4 31 45
60 110 52 115 107 235 156 339 13 28 24 53 24 57 0 3 29 67 65 142 36 75 65
138 65 141 0 3 13 33 30 67 107 225 518 1142 514 1149 -3 4 -165 8 -359 8
l-355 0 -44 89 c-25 49 -42 91 -39 95 4 3 257 6 563 6 l557 0 92 204 c51 113
90 210 86 215 -8 14 -1941 15 -1949 2 -3 -5 5 -33 18 -62 239 -529 430 -947
438 -956 8 -10 55 -13 174 -13 106 0 164 -4 164 -10 0 -6 -24 -63 -53 -128
-30 -64 -84 -186 -122 -270 -38 -84 -74 -151 -79 -149 -11 4 -54 97 -251 537
-67 151 -132 295 -143 320 -12 25 -91 200 -176 390 l-154 345 -224 3 c-123 1
-227 0 -231 -4z"/>
<path d="M2804 2663 c-14 -32 -33 -74 -41 -93 -9 -19 -37 -81 -64 -138 -27
-57 -49 -109 -49 -116 0 -6 -6 -20 -14 -31 -7 -11 -57 -119 -111 -240 -54
-121 -111 -249 -127 -285 -17 -36 -74 -164 -128 -285 -145 -327 -159 -356
-168 -351 -5 3 -28 49 -52 103 -24 54 -49 104 -55 111 -13 14 -16 8 -73 -118
-11 -25 -53 -116 -92 -203 -47 -102 -70 -165 -67 -180 3 -12 33 -83 67 -157
34 -74 99 -218 144 -320 46 -102 94 -207 108 -233 l24 -49 38 84 c49 107 259
576 441 983 79 176 201 451 273 610 327 732 341 763 393 871 48 101 62 94
-196 94 l-225 0 -26 -57z"/>
</g>
</svg>
