<?xml version="1.0" standalone="no"?>
<!DOCTYPE svg PUBLIC "-//W3C//DTD SVG 20010904//EN"
 "http://www.w3.org/TR/2001/REC-SVG-20010904/DTD/svg10.dtd">
<svg version="1.0" xmlns="http://www.w3.org/2000/svg"
 width="512.000000pt" height="512.000000pt" viewBox="0 0 512.000000 512.000000"
 preserveAspectRatio="xMidYMid meet">
<metadata>
Created by potrace 1.16, written by Peter Selinger 2001-2019
</metadata>
<g transform="translate(0.000000,512.000000) scale(0.100000,-0.100000)"
fill="#000000" stroke="none">
<path d="M737 4634 c-183 -39 -318 -115 -462 -259 -146 -146 -221 -280 -259
-468 -14 -67 -16 -230 -16 -1347 0 -1379 -2 -1332 55 -1487 83 -228 320 -465
548 -548 146 -53 170 -55 820 -55 591 0 605 0 630 20 36 29 51 108 44 240 -5
104 -5 105 -38 132 l-33 28 -541 0 c-297 0 -574 5 -615 10 -220 29 -411 220
-440 440 -13 100 -13 2340 0 2440 29 220 220 411 440 440 41 5 319 10 616 10
527 0 542 1 567 20 31 25 47 91 47 198 -1 101 -13 152 -45 180 l-26 22 -612
-1 c-498 0 -625 -3 -680 -15z"/>
<path d="M3062 4539 c-46 -14 -115 -85 -130 -135 -9 -30 -12 -171 -12 -523 l0
-481 -750 0 c-820 0 -790 2 -854 -58 -16 -15 -37 -45 -47 -67 -17 -38 -19 -79
-19 -713 0 -735 -2 -712 58 -776 15 -16 45 -37 67 -47 38 -18 81 -19 793 -19
l752 0 0 -481 c0 -352 3 -493 12 -523 24 -80 115 -146 203 -146 92 0 52 -36
1028 938 620 620 924 930 937 958 26 53 26 135 0 188 -13 28 -317 338 -937
958 -793 792 -923 918 -958 927 -48 13 -98 13 -143 0z"/>
</g>
</svg>
