<?xml version="1.0" standalone="no"?>
<!DOCTYPE svg PUBLIC "-//W3C//DTD SVG 1.0//EN" "http://www.w3.org/TR/2001/REC-SVG-20010904/DTD/svg10.dtd">
<svg xmlns="http://www.w3.org/2000/svg" xmlns:xlink="http://www.w3.org/1999/xlink" id="body_1" width="284" height="225">

<g transform="matrix(0.9453782 0 0 0.9453782 0.386541 -0)">
	<g transform="matrix(0.1 0 -0 -0.1 0 238)">
        <path d="M1747 2312C 1713 2299 1692 2298 1566 2310C 1488 2317 1406 2320 1385 2316C 1345 2308 1290 2262 1290 2236C 1290 2227 1286 2220 1282 2220C 1277 2220 1263 2201 1251 2179C 1230 2143 1228 2130 1235 2076C 1239 2043 1242 1990 1241 1958C 1240 1914 1248 1879 1281 1793C 1315 1703 1321 1676 1318 1632C 1310 1537 1231 1487 1153 1527C 1132 1538 1084 1563 1045 1583C 956 1629 907 1637 861 1613C 842 1603 825 1590 823 1584C 821 1578 842 1538 871 1494L871 1494L922 1415L829 1514C 778 1568 721 1619 703 1626C 664 1643 557 1644 528 1629C 517 1623 487 1603 463 1584C 406 1540 394 1541 425 1586C 452 1626 464 1677 485 1844C 500 1965 513 2000 552 2021C 580 2036 636 2034 686 2016C 746 1995 830 1987 863 1999C 887 2008 890 2014 890 2057C 889 2084 879 2134 867 2170C 840 2249 808 2270 717 2270C 637 2270 520 2251 493 2234C 481 2227 451 2190 427 2152C 403 2115 361 2066 334 2044C 232 1961 176 1895 134 1809C 87 1714 41 1578 33 1507C 25 1444 40 1428 195 1337C 261 1299 347 1246 385 1220C 510 1136 583 1105 692 1090C 777 1078 790 1083 790 1129C 791 1155 800 1134 826 1045C 845 979 881 885 905 835C 946 750 1031 631 1057 623C 1070 618 1112 703 1130 769C 1136 792 1143 810 1145 808C 1156 798 1034 396 986 279C 980 266 988 261 1032 256C 1110 246 1277 187 1395 129L1395 129L1497 79L1611 133C 1734 192 1887 245 1967 255L1967 255L2016 262L1962 419C 1913 563 1849 781 1851 805C 1851 811 1863 781 1879 740C 1894 699 1913 652 1921 636L1921 636L1937 608L1974 651C 2069 762 2117 859 2174 1056C 2203 1155 2209 1168 2210 1134C 2210 1082 2221 1077 2308 1090C 2417 1105 2497 1139 2605 1215C 2638 1238 2721 1290 2790 1330C 2859 1371 2928 1417 2944 1432C 2969 1458 2972 1466 2967 1504C 2957 1575 2911 1710 2864 1807C 2817 1902 2780 1946 2665 2045C 2633 2072 2587 2125 2564 2162C 2540 2199 2513 2233 2503 2238C 2451 2266 2234 2279 2190 2257C 2157 2241 2125 2176 2110 2094C 2099 2035 2099 2026 2114 2012C 2137 1988 2237 1991 2322 2018C 2372 2034 2397 2037 2420 2030C 2487 2011 2494 1994 2515 1822C 2531 1688 2552 1607 2578 1577C 2602 1549 2586 1548 2549 1575C 2530 1588 2504 1607 2491 1617C 2474 1629 2443 1636 2393 1638C 2329 1642 2315 1639 2276 1616C 2251 1602 2225 1581 2218 1571C 2211 1561 2176 1522 2141 1484C 2077 1416 2078 1422 2148 1527C 2187 1587 2184 1601 2123 1620C 2075 1637 2017 1620 1904 1559C 1854 1532 1803 1510 1790 1510C 1762 1510 1703 1568 1694 1605C 1685 1642 1704 1713 1738 1769C 1786 1846 1793 1864 1798 1914C 1801 1949 1799 1966 1789 1974C 1779 1982 1775 2009 1775 2070C 1775 2139 1771 2162 1753 2192C 1733 2227 1733 2229 1749 2244C 1762 2256 1797 2336 1787 2329C 1786 2328 1768 2321 1747 2312z" stroke="none" fill="#000000" fill-rule="nonzero" />
	</g>
</g>
</svg>