<?xml version="1.0" standalone="no"?>
<!DOCTYPE svg PUBLIC "-//W3C//DTD SVG 20010904//EN"
 "http://www.w3.org/TR/2001/REC-SVG-20010904/DTD/svg10.dtd">
<svg version="1.0" xmlns="http://www.w3.org/2000/svg"
 width="512.000000pt" height="512.000000pt" viewBox="0 0 512.000000 512.000000"
 preserveAspectRatio="xMidYMid meet">
<metadata>
Created by potrace 1.16, written by Peter Selinger 2001-2019
</metadata>
<g transform="translate(0.000000,512.000000) scale(0.100000,-0.100000)"
fill="#000000" stroke="none">
<path d="M4975 4791 c-68 -31 -4775 -2341 -4857 -2383 -91 -47 -118 -82 -118
-152 0 -56 19 -97 57 -124 16 -10 319 -157 675 -327 464 -221 651 -305 660
-298 7 6 560 459 1228 1008 668 548 1193 973 1165 944 -27 -29 -508 -513
-1067 -1076 -560 -562 -1018 -1026 -1018 -1030 0 -13 1622 -783 1663 -790 52
-8 122 28 146 76 10 20 377 940 815 2044 566 1430 796 2020 796 2047 0 30 -6
43 -26 59 -33 26 -67 26 -119 2z"/>
<path d="M1700 705 l0 -346 25 -24 c49 -50 65 -43 388 177 164 111 294 205
290 209 -11 10 -683 329 -694 329 -5 0 -9 -141 -9 -345z"/>
</g>
</svg>
