<?xml version="1.0" standalone="no"?>
<!DOCTYPE svg PUBLIC "-//W3C//DTD SVG 20010904//EN"
 "http://www.w3.org/TR/2001/REC-SVG-20010904/DTD/svg10.dtd">
<svg version="1.0" xmlns="http://www.w3.org/2000/svg"
 width="920.000000pt" height="512.000000pt" viewBox="0 0 920.000000 512.000000"
 preserveAspectRatio="xMidYMid meet">
<metadata>
Created by potrace 1.16, written by Peter Selinger 2001-2019
</metadata>
<g transform="translate(0.000000,512.000000) scale(0.100000,-0.100000)"
fill="#000000" stroke="none">
<path d="M5922 5070 c-28 -4 -85 -24 -126 -43 -60 -28 -96 -57 -202 -160
l-129 -126 655 -655 c360 -361 657 -656 660 -656 14 0 263 277 281 312 75 146
66 332 -21 467 -45 71 -766 784 -819 811 -91 45 -203 64 -299 50z"/>
<path d="M5095 4413 l-156 -147 682 -682 683 -683 55 50 c31 27 103 94 161
148 l105 100 -680 680 c-374 375 -683 681 -686 681 -4 0 -78 -66 -164 -147z"/>
<path d="M3644 2961 c-907 -898 -1112 -1107 -1122 -1138 -7 -21 -114 -384
-238 -807 -203 -690 -226 -775 -221 -822 10 -98 77 -163 176 -171 50 -4 133
19 839 226 431 127 795 237 809 245 33 17 2223 2185 2223 2200 0 6 -65 76
-144 155 l-144 143 -1083 -1080 -1084 -1080 -430 -127 -429 -126 -88 89 -89
88 132 450 131 449 1064 1065 c585 586 1064 1070 1064 1075 0 6 -58 68 -128
138 l-128 128 -1110 -1100z"/>
<path d="M4136 2500 c-598 -596 -1083 -1086 -1079 -1090 4 -4 76 -22 160 -40
l151 -33 6 -31 c3 -17 13 -82 22 -143 9 -62 20 -113 23 -113 3 0 493 487 1089
1083 l1082 1082 -184 184 -184 183 -1086 -1082z"/>
</g>
</svg>
