<?xml version="1.0" standalone="no"?>
<!DOCTYPE svg PUBLIC "-//W3C//DTD SVG 20010904//EN"
 "http://www.w3.org/TR/2001/REC-SVG-20010904/DTD/svg10.dtd">
<svg version="1.0" xmlns="http://www.w3.org/2000/svg"
 width="512.000000pt" height="512.000000pt" viewBox="0 0 512.000000 512.000000"
 preserveAspectRatio="xMidYMid meet">

<g transform="translate(0.000000,512.000000) scale(0.100000,-0.100000)"
fill="#000000" stroke="none">
<path d="M2297 3830 l-258 -780 -851 -2 -851 -3 694 -484 c382 -266 695 -484
696 -485 1 -1 -120 -354 -268 -785 -148 -432 -267 -786 -266 -787 2 -2 309
215 682 481 374 267 682 485 685 485 3 0 311 -218 685 -485 373 -266 680 -483
682 -481 1 1 -119 355 -267 786 -148 431 -266 786 -261 789 4 4 318 222 696
486 l688 480 -851 3 -852 2 -257 780 c-142 429 -260 780 -263 780 -3 0 -121
-351 -263 -780z"/>
</g>
</svg>
