<?xml version="1.0" standalone="no"?>
<!DOCTYPE svg PUBLIC "-//W3C//DTD SVG 20010904//EN"
 "http://www.w3.org/TR/2001/REC-SVG-20010904/DTD/svg10.dtd">
<svg version="1.0" xmlns="http://www.w3.org/2000/svg"
 width="1974.000000pt" height="1548.000000pt" viewBox="0 0 1974.000000 1548.000000"
 preserveAspectRatio="xMidYMid meet">
<metadata>
Created by potrace 1.16, written by Peter Selinger 2001-2019
</metadata>
<g transform="translate(0.000000,1548.000000) scale(0.100000,-0.100000)"
fill="#000000" stroke="none">
<path d="M9945 15055 c-38 -6 -171 -33 -295 -58 -564 -115 -1073 -167 -1353
-138 -187 20 -321 65 -362 123 -14 21 -15 18 -15 -52 0 -176 80 -331 267 -517
l103 -101 -58 -164 -57 -163 1 -210 c0 -159 6 -248 22 -369 28 -200 83 -497
127 -691 19 -82 32 -151 31 -152 -2 -2 -61 107 -132 242 -71 134 -132 245
-135 245 -3 0 -20 -69 -38 -153 l-32 -153 67 -400 66 -399 47 -53 c110 -127
99 -100 137 -323 62 -369 129 -640 189 -766 72 -154 229 -353 494 -627 111
-114 116 -116 -184 85 -108 72 -197 129 -199 128 -1 -2 -12 -38 -25 -79 -106
-342 -354 -639 -620 -743 -153 -60 -298 -69 -628 -41 -266 23 -539 15 -683
-19 -139 -33 -215 -60 -335 -118 -93 -46 -98 -47 -65 -18 19 17 82 62 139 100
167 113 305 175 455 208 l79 17 -66 42 c-380 240 -881 360 -1302 312 -143 -17
-365 -68 -388 -89 -6 -6 194 -458 244 -553 20 -37 0 -16 -41 45 -287 413 -700
700 -1181 823 -182 46 -288 58 -529 58 -381 0 -488 -22 -1100 -233 -256 -87
-478 -164 -495 -171 -16 -6 -25 -7 -20 -1 6 5 168 105 360 222 193 116 355
217 362 223 16 15 66 268 94 481 20 147 23 214 24 495 0 347 -7 431 -60 675
-13 61 -29 162 -35 223 -25 262 39 547 177 789 48 83 166 243 181 243 4 0 15
-26 24 -58 23 -80 81 -157 148 -198 81 -50 146 -59 315 -44 168 15 238 7 400
-48 l110 -37 190 1 c235 2 363 16 429 49 l50 24 88 -35 c66 -26 103 -34 149
-34 61 0 64 1 106 45 51 54 100 147 114 219 15 73 -7 153 -76 274 -30 52 -82
165 -116 251 -145 370 -265 539 -447 634 -157 81 -204 88 -722 97 -467 8 -532
14 -667 61 -260 89 -508 -43 -801 -428 -162 -214 -584 -888 -939 -1503 -393
-678 -735 -1358 -908 -1800 -113 -288 -189 -589 -231 -910 -22 -175 -15 -408
16 -505 62 -195 188 -319 453 -445 124 -59 221 -96 517 -200 575 -201 837
-312 1015 -428 39 -25 120 -95 180 -156 88 -89 126 -119 190 -153 252 -130
778 -250 1355 -309 85 -8 292 -18 460 -21 313 -6 475 2 674 34 143 22 297 14
401 -21 122 -41 208 -97 316 -205 107 -107 177 -207 249 -356 44 -92 120 -292
120 -318 0 -5 -23 28 -51 74 -156 260 -347 428 -573 505 -64 22 -233 50 -243
41 -2 -3 8 -47 22 -98 105 -374 353 -890 614 -1277 66 -99 209 -288 366 -487
191 -240 336 -477 510 -830 136 -276 228 -500 315 -765 77 -232 103 -328 86
-309 -7 8 -105 164 -216 347 -112 183 -205 331 -206 329 -2 -2 14 -66 36 -143
72 -250 139 -579 176 -869 22 -163 25 -553 6 -670 -63 -390 -212 -907 -395
-1375 -40 -102 -61 -169 -56 -176 14 -18 351 -187 505 -253 382 -165 760 -283
1132 -355 449 -87 956 -100 1332 -34 145 25 215 25 360 0 376 -66 882 -53
1332 33 367 72 750 192 1123 352 161 70 499 239 514 257 5 7 -16 74 -56 176
-183 468 -332 985 -395 1375 -19 117 -16 507 6 670 37 290 104 619 176 869 22
77 38 141 36 143 -1 2 -94 -146 -206 -329 -111 -183 -209 -339 -216 -347 -31
-34 108 395 217 670 84 209 274 598 376 769 105 175 212 332 318 465 157 199
300 388 366 487 261 387 509 903 614 1277 14 51 24 95 22 98 -3 2 -43 -1 -89
-7 -287 -35 -535 -219 -727 -539 -28 -46 -51 -79 -51 -74 0 26 76 226 120 318
74 153 142 250 254 360 114 113 177 154 303 198 112 39 259 47 409 24 199 -32
361 -40 674 -34 168 3 375 13 460 21 577 59 1103 179 1355 309 64 34 102 64
190 153 61 61 142 131 180 156 166 108 406 212 865 375 420 148 555 200 667
253 265 126 391 250 453 445 31 97 38 330 16 505 -25 193 -91 501 -137 645
-201 630 -766 1719 -1515 2922 -362 581 -533 810 -708 950 -182 144 -346 183
-519 124 -135 -47 -200 -53 -667 -61 -518 -9 -565 -16 -722 -97 -182 -95 -302
-264 -447 -634 -34 -86 -86 -199 -116 -251 -69 -121 -91 -201 -76 -274 14 -72
63 -165 114 -219 42 -44 45 -45 106 -45 46 0 83 8 149 34 l88 35 50 -24 c66
-33 194 -47 429 -49 l190 -1 110 37 c162 55 232 63 400 48 169 -15 234 -6 315
44 67 41 125 118 148 198 9 32 20 58 24 58 15 0 133 -160 181 -243 98 -173
158 -364 177 -564 13 -140 2 -274 -40 -474 -49 -238 -63 -405 -57 -714 4 -196
11 -315 27 -435 27 -206 77 -461 93 -476 7 -6 170 -107 362 -223 193 -117 355
-217 360 -222 6 -6 -3 -5 -20 1 -16 7 -244 85 -505 174 -609 209 -713 231
-1095 230 -235 -1 -344 -13 -524 -58 -153 -39 -247 -73 -386 -141 -318 -154
-590 -388 -795 -682 -41 -61 -61 -82 -41 -45 50 95 250 547 244 553 -23 21
-245 72 -388 89 -421 48 -922 -72 -1302 -312 l-66 -42 79 -17 c150 -33 288
-95 455 -208 57 -38 120 -83 139 -100 33 -29 28 -28 -65 18 -120 58 -196 85
-335 118 -144 34 -417 42 -683 19 -330 -28 -475 -19 -628 41 -220 86 -419 291
-548 564 -27 57 -60 139 -73 181 -14 49 -27 76 -35 74 -6 -3 -114 -73 -240
-157 l-228 -151 96 98 c265 274 422 473 494 627 60 126 127 397 189 766 38
223 27 196 137 323 l47 53 66 399 67 400 -32 153 c-18 84 -35 153 -38 153 -3
0 -64 -111 -135 -245 -71 -135 -130 -244 -132 -242 -1 1 12 70 31 152 44 194
99 491 127 691 16 121 22 210 22 369 l1 210 -57 164 c-32 90 -58 170 -58 177
0 23 -82 153 -142 223 -167 199 -480 388 -778 471 -175 48 -443 64 -605 35z"/>
</g>
</svg>
